# xmcd
#
# Track frame offsets:
# 150
# 9077
# 19687
# 30582
# 41217
# 52160
# 64527
# 76150
# 87340
# 96410
# 105712
# 114945
# 124140
# 135735
# 145932
# 159180
#
# Disc length: 2302 seconds
#
#
# Revision: 0
# Processed by: cddbd v1.5.1PL0 Copyright (c) Steve Scherf et al.
# Submitted via: FreeRIP 2.942 
#
DISCID=c808fc10
DTITLE=Brown's Ferry Four - 16 Greatest Hits
DYEAR=1997
DGENRE=Gospel
TTITLE0=Over In The Gloryland
TTITLE1=Heaven Eternal For Me
TTITLE2=when The Redeemed Are Gathering In
TTITLE3=You Must Be Born Again
TTITLE4=What Shall I Do With Jesus
TTITLE5=Praise God He Loves Everbody
TTITLE6=The Arm Of God
TTITLE7=Can't You Hear Him Calling
TTITLE8=Everybody Will Be Happy Over There
TTITLE9=Rock Of Ages Hide Thou Me
TTITLE10=The Lord Is Watching Over Me
TTITLE11=When The Good Lord Cares
TTITLE12=Etenity Without Him
TTITLE13=Bound For The Shore
TTITLE14=If We Never Meet Again
TTITLE15=Will The Circle Be Unbroken
EXTD=Starday Music
EXTT0=
EXTT1=
EXTT2=
EXTT3=
EXTT4=
EXTT5=
EXTT6=
EXTT7=
EXTT8=
EXTT9=
EXTT10=
EXTT11=
EXTT12=
EXTT13=
EXTT14=
EXTT15=
PLAYORDER=
